<?xml version="1.0" encoding="UTF-8"?><svg xmlns="http://www.w3.org/2000/svg" xmlns:xlink="http://www.w3.org/1999/xlink" viewBox="0 0 117.11 59.02"><defs><style>.e{fill:#253a7e;}.f{fill:url(#d);}</style><linearGradient id="d" x1="57.31" y1="-1.8" x2="42.29" y2="16.2" gradientTransform="matrix(1, 0, 0, 1, 0, 0)" gradientUnits="userSpaceOnUse"><stop offset="0" stop-color="#253a7e"/><stop offset=".66" stop-color="#ea2290"/><stop offset="1" stop-color="#ea2290"/></linearGradient></defs><g id="a"/><g id="b"><g id="c"><g><g><path class="e" d="M19.25,23.26c-3.5,0-6.41,1-8.6,2.93V11.99c0-.83-.68-1.51-1.51-1.51H1.51c-.83,0-1.51,.68-1.51,1.51V56.83c0,.83,.68,1.51,1.51,1.51h7.63c.83,0,1.51-.68,1.51-1.51v-15.69c0-6.21,3.5-8.41,6.49-8.41,3.83,0,4.63,3.7,4.63,6.8v17.3c0,.83,.68,1.51,1.51,1.51h7.63c.83,0,1.51-.68,1.51-1.51v-17.36c0-10.3-4.8-16.21-13.17-16.21Z"/><rect class="e" x="37.77" y="23.94" width="10.65" height="34.4" rx="1.51" ry="1.51"/><path class="e" d="M70.39,37.54l-4.6-1.66c-1.93-.76-2.31-1.24-2.31-1.81,0-1.3,1.54-1.77,2.58-1.77s2.74,.28,3.34,2.17h0c.26,.82,1.15,1.26,1.96,.96l6.14-2.23c.78-.28,1.18-1.14,.91-1.92h0c-1.79-5.09-6.31-8.02-12.4-8.02-7.64,0-12.98,4.52-12.98,11,0,2.58,1.15,7.34,8.85,10.16l4.56,1.73c2.04,.86,2.46,1.4,2.46,1.94,0,1.6-2.24,1.78-3.2,1.78-2.11,0-4.6-.89-5.23-3.39h0c-.23-.9-1.2-1.38-2.05-1.02l-6.01,2.54c-.71,.3-1.08,1.09-.86,1.83h0c2.05,6.78,8.63,9.2,14.1,9.2,8.12,0,13.79-4.55,13.79-11.06,0-2.84-1.17-7.96-9.03-10.42Z"/><path class="e" d="M107.36,25.9v1.38c-2.51-2.32-5.83-3.57-9.61-3.57-4.89,0-9.08,1.78-12.11,5.15-2.83,3.14-4.39,7.46-4.39,12.16,0,10.17,6.91,17.55,16.44,17.55,3.89,0,7.23-1.24,9.67-3.53v1.34c0,.83,.68,1.51,1.51,1.51h6.72c.83,0,1.51-.68,1.51-1.51V25.9c0-.83-.68-1.51-1.51-1.51h-6.72c-.83,0-1.51,.68-1.51,1.51Zm.19,15.49c0,5.27-3.26,8.68-8.31,8.68s-8.19-3.61-8.19-8.99c0-4.41,2.47-8.86,8-8.86,5.08,0,8.49,3.69,8.49,9.17Z"/></g><path class="f" d="M53.69,15.83l-1.83-1.83c-.63-.63-1.59-.78-2.38-.39l-6.13,3.07c-1.77,.89-3.65-1-2.77-2.77l3.04-6.07c.4-.79,.24-1.75-.39-2.38l-1.94-1.94c-1.3-1.3-.38-3.52,1.46-3.52h12.3c1.13,0,2.05,.91,2.06,2.05l.1,12.31c.01,1.85-2.22,2.78-3.52,1.48Z"/></g></g></g></svg>